<mxfile host="app.diagrams.net" modified="2023-11-23T07:51:42.642Z" agent="Mozilla/5.0 (Windows NT 10.0; Win64; x64) AppleWebKit/537.36 (KHTML, like Gecko) Chrome/117.0.0.0 Safari/537.36" version="22.1.3" etag="1_FW0jHje-HHfnEmVsJ7" type="github">
  <diagram name="Seite-1" id="ny0XuKFU2a-o36BkVd1n">
    <mxGraphModel>
      <root>
        <mxCell id="0" />
        <mxCell id="1" parent="0" />
      </root>
    </mxGraphModel>
  </diagram>
</mxfile>
